<svg xmlns="http://www.w3.org/2000/svg" viewBox="0 0 190.12 189.17"><defs><style>.cls-1{fill:#99da65;}.cls-2{fill:#51ae06;}.cls-3{fill:#59c203;}.cls-4{fill:#5bc306;}.cls-5{fill:#98d964;}.cls-6{fill:#a0d279;}.cls-7{fill:#39b44a;}</style></defs><g id="Layer_2" data-name="Layer 2"><g id="Layer_1-2" data-name="Layer 1"><path class="cls-1" d="M46.62,52.65v-41H59.1V22.58c2.13-1.34,3.45-2.08,4.67-3,7.55-5.48,15.07-11,22.63-16.47C92.18-1,97.64-1,103.4,3.09Q144.22,32.36,185,61.66c5.3,3.81,6.58,9,3.36,13.28s-8.38,4.55-13.76.71c-25.07-17.92-50.18-35.79-75.14-53.86-3.36-2.44-5.57-2.61-9-.08-13.4,9.88-27.06,19.4-40.64,29C49.05,51.3,48.18,51.73,46.62,52.65Z"/><path class="cls-2" d="M.49,189.17v-7.42h188.7v7.42Z"/><path class="cls-3" d="M99.77,79.37c8.88,0,23.33,0,25.51.14,5.32.35,13.76,2.46,16.42,10,2.39,6.81.6,12.73-5.87,17.26,6.09,3.56,9.2,8.16,8.82,15-.5,8.85-6.22,15.17-15.1,15.42-9.81.28-19.63.07-29.78.07Zm6.83,51.55c7.38,0,14.35.44,21.24-.13,5.92-.49,9.59-4.89,9.43-9.73a9.6,9.6,0,0,0-9.35-9.35c-7.17-.28-14.12-.13-21.32-.13Zm.06-26.31c7.29,0,11.9.07,18.9,0,4.19,0,9.06-4.46,9.27-8.71.23-4.44-3.11-8.47-10-9.58-3.85-.62-10.46-.45-18.13-.45Z"/><path class="cls-4" d="M89.54,131.26c-8.89,8-21.92,7.1-26.3,5.81-4.57-1.35-8.81-2.74-13.12-8.5s-5.78-11.88-5.78-19.15c0-8.08,1.69-15.19,5.94-21,11.47-15.56,36-13,44.3,4.42.84,1.78,1.94,5.37-.21,6.6-2.44,1.41-5.06.23-6.64-3.23-1.87-4.07-6.58-7.86-10.82-9.56-10.24-4.09-22.53,3-24.11,14.39-.51,3.64-1,10,.34,15.6,2.21,9.07,9.57,14.92,18,14.63,9.44-.33,17.35-7.62,17.91-16.89-4.67,0-9.38.1-14-.17-1.69-.1-4.28-.55-4.44-3.23-.14-2.14,1.13-3.64,4.22-3.64,11.52,0,11.52,0,17.52,0,3,0,4.14,1,4.07,4-.17,7.17.09,15.63,0,23.22a2.92,2.92,0,0,1-3.13,2.81,3.08,3.08,0,0,1-3.23-2.69A10,10,0,0,0,89.54,131.26Z"/><path class="cls-1" d="M18.42,162.09V155c0-22.49.1-46.6-.16-69.08-.05-4.73-.82-3.61,3.22-6.71,2.57-2,7.49-5.62,10.64-7.91v90.8Z"/><path class="cls-1" d="M156.87,162.29v-91c4.24,3.13,8.16,5.85,11.82,8.86a4.34,4.34,0,0,1,1.71,3.26c.07,25.65.07,53.26,0,78.91Z"/><path class="cls-5" d="M19.36,11.6h13v11c0,12-.08,24,.06,36A7.66,7.66,0,0,1,28.51,66c-4.89,3.14-9.4,6.89-14.18,10.21s-10,2.74-12.82-1.36-1.67-9.37,2.77-12.7c4-3,8.31-5.6,12.11-8.82a8.58,8.58,0,0,0,2.84-5.66C19.49,35.83,19.36,24,19.36,11.6Z"/><path class="cls-6" d="M16.52,178.07V166.84H45.08v11.23Z"/><path class="cls-6" d="M79.71,166.71h28.45v11.38H79.71Z"/><path class="cls-7" d="M140.39,166.85v11.24H111.78V166.85Z"/><path class="cls-6" d="M143.63,178.05V166.86h28.55v11.19Z"/><path class="cls-7" d="M76.22,166.81v11.38H48.61V166.81Z"/></g></g></svg>